<?xml version="1.0" encoding="UTF-8"?>
<svg version="1.1" xmlns="http://www.w3.org/2000/svg" width="565" height="566">
<path d="M0 0 C3.57855946 3.09427815 6.9920692 6.35397011 10.38378906 9.64941406 C11.03444336 10.27428711 11.68509766 10.89916016 12.35546875 11.54296875 C14.5009034 13.60912637 16.63182819 15.68925361 18.75878906 17.77441406 C19.42523438 18.41926758 20.09167969 19.06412109 20.77832031 19.72851562 C25.19441086 24.11572832 29.87721182 28.877435 32.38378906 34.64941406 C32.21203736 39.03829099 30.51601973 40.97882691 27.41113281 43.94238281 C26.59322266 44.73837891 25.7753125 45.534375 24.93261719 46.35449219 C24.07087891 47.17369141 23.20914063 47.99289063 22.32128906 48.83691406 C6.90108757 63.61411102 -5.53838487 80.84220344 -15.61621094 99.64941406 C-16.06222656 100.43703125 -16.50824219 101.22464844 -16.96777344 102.03613281 C-28.86665983 124.02988088 -34.63328517 151.05248718 -28.25878906 175.55078125 C-25.37170894 184.97986208 -20.96195767 194.34855956 -13.86621094 201.30175781 C-12.61621094 202.64941406 -12.61621094 202.64941406 -12.61621094 204.64941406 C-12.05933594 204.89691406 -11.50246094 205.14441406 -10.92871094 205.39941406 C-8.61621094 206.64941406 -8.61621094 206.64941406 -6.49121094 208.39941406 C0.78291441 214.09220781 8.93231129 218.01817076 17.38378906 221.64941406 C17.444375 220.34230469 17.50496094 219.03519531 17.56738281 217.68847656 C18.11368331 206.00512054 18.71368598 194.32631675 19.38378906 182.64941406 C18.63871094 182.39160156 17.89363281 182.13378906 17.12597656 181.86816406 C5.73548338 176.80572265 -2.13635572 161.6128936 -6.61621094 150.64941406 C-11.73631651 133.8437087 -8.77875723 115.76933904 -0.88525391 100.43481445 C2.31098465 94.50550747 5.85727336 88.66470846 10.38378906 83.64941406 C11.04378906 83.64941406 11.70378906 83.64941406 12.38378906 83.64941406 C12.72410156 82.80443359 12.72410156 82.80443359 13.07128906 81.94238281 C14.75051448 79.00873603 16.84933588 77.19061199 19.38378906 74.96191406 C20.27066406 74.17429687 21.15753906 73.38667969 22.07128906 72.57519531 C25.92589593 69.36519331 28.91987148 69.46649637 33.75878906 69.46191406 C34.43167969 69.44966797 35.10457031 69.43742187 35.79785156 69.42480469 C39.50240749 69.41386604 42.23869549 69.60913541 45.38378906 71.64941406 C46.14421778 78.43363108 46.14421778 78.43363108 44.23242188 81.49023438 C42.56303204 83.3415114 40.82035981 85.06205336 39.00878906 86.77441406 C37.71753239 88.07568048 36.43244719 89.38309734 35.15332031 90.69628906 C34.51475098 91.35177734 33.87618164 92.00726563 33.21826172 92.68261719 C26.66894962 99.7043444 20.18322712 108.05241107 18.38378906 117.64941406 C18.1246875 118.79410156 18.1246875 118.79410156 17.86035156 119.96191406 C16.49960351 127.97235541 18.54396774 135.91637853 22.70800781 142.85644531 C28.40329251 150.01846086 36.51242719 153.9755722 45.38378906 155.64941406 C56.10840973 156.85574999 66.68009685 154.75564798 75.44628906 148.27441406 C81.45868268 143.10992211 84.89153348 137.37735724 85.71972656 129.42285156 C85.89841627 113.87684713 80.84395053 103.63161816 70.23144531 92.36425781 C67.69973432 89.84226548 65.12748599 87.36456825 62.55175781 84.88769531 C59.53823513 81.74713889 58.01754863 79.72417795 57.94628906 75.27441406 C58.38378906 71.64941406 58.38378906 71.64941406 59.38378906 70.64941406 C77.35121429 68.72562914 77.35121429 68.72562914 84.50878906 74.46191406 C87.03222656 76.95800781 87.03222656 76.95800781 89.38378906 79.64941406 C90.18042969 80.52726562 90.97707031 81.40511719 91.79785156 82.30957031 C104.23902228 96.76879046 113.59814151 114.55658679 112.66113281 134.19628906 C110.53106466 153.03689187 103.72557112 165.26999651 90.38378906 178.64941406 C89.64515625 179.431875 88.90652344 180.21433594 88.14550781 181.02050781 C86.38378906 182.64941406 86.38378906 182.64941406 84.38378906 182.64941406 C84.69387135 187.10791894 85.00729776 191.56618291 85.32128906 196.02441406 C85.40830078 197.27609375 85.4953125 198.52777344 85.58496094 199.81738281 C86.07670966 206.77471654 86.63207839 213.71506012 87.38378906 220.64941406 C106.82596415 211.57961526 121.78845235 200.1761791 129.50488281 179.38378906 C138.17893218 152.39785771 132.17372148 125.1843288 119.55249023 100.53466797 C113.16396319 88.3996166 105.98287114 77.32603437 97.38378906 66.64941406 C96.7121875 65.77285156 96.04058594 64.89628906 95.34863281 63.99316406 C91.81496412 59.47224689 88.14502539 55.36568532 84.04003906 51.36035156 C83.26539307 50.60399414 82.49074707 49.84763672 81.69262695 49.06835938 C80.13100038 47.5576991 78.55746574 46.05923736 76.97143555 44.57421875 C76.25028564 43.87973633 75.52913574 43.18525391 74.78613281 42.46972656 C74.1312085 41.85371582 73.47628418 41.23770508 72.80151367 40.60302734 C70.98631803 38.10170213 71.00107086 36.67739943 71.38378906 33.64941406 C72.85253906 31.29003906 72.85253906 31.29003906 74.88378906 28.89941406 C75.60824219 28.04089844 76.33269531 27.18238281 77.07910156 26.29785156 C77.83964844 25.42386719 78.60019531 24.54988281 79.38378906 23.64941406 C80.12371094 22.77542969 80.86363281 21.90144531 81.62597656 21.00097656 C85.61846209 16.36501352 85.61846209 16.36501352 87.38378906 14.64941406 C88.04378906 14.64941406 88.70378906 14.64941406 89.38378906 14.64941406 C89.63 14.070625 89.87621094 13.49183594 90.12988281 12.89550781 C101.43813419 -7.36070572 137.79187198 -25.94896228 159.38378906 -32.35058594 C179.53177988 -36.92642039 201.96662853 -33.17590214 219.38378906 -22.35058594 C222.906632 -19.86816812 226.15952977 -17.2045681 229.38378906 -14.35058594 C230.91465951 -13.49375654 230.91465951 -13.49375654 232.47645664 -12.61961746 C234.80387281 -10.65223622 235.34237591 -9.56175048 235.93683898 -6.53059912 C236.14721943 -2.70999949 236.1598115 1.08727579 236.11204529 4.91094971 C236.11537783 6.39948835 236.12134391 7.88802304 236.12971836 9.37654185 C236.14508909 13.46822207 236.12299501 17.55897864 236.09484184 21.65055943 C236.07101037 26.0622661 236.081783 30.47390343 236.08833313 34.88565063 C236.09574934 43.52757552 236.07138813 52.16913562 236.03673219 60.81098273 C235.99778005 70.86657568 235.99183902 80.92210539 235.98775209 90.97776303 C235.97949591 108.91201371 235.94370493 126.84610154 235.89135742 144.78027344 C235.84055637 162.20019628 235.80516238 179.62004875 235.78881836 197.04003906 C235.78780742 198.11347845 235.78679648 199.18691784 235.78575491 200.29288569 C235.78173539 204.60705907 235.77777292 208.92123249 235.77389845 213.235406 C235.75688864 231.8155775 235.7284395 250.39573449 235.69735923 268.97588718 C235.69236217 271.98999281 235.68755881 275.00409871 235.6827724 278.01820469 C235.66422747 289.45324422 235.63970504 300.88824664 235.60665703 312.32325363 C235.59679134 315.79628544 235.58923476 319.26931011 235.58374405 322.74235153 C235.57734494 326.72927044 235.56631325 330.7161476 235.55141164 334.70304355 C235.54679133 336.15175382 235.54387074 337.60047061 235.54274493 339.04918781 C235.54094927 341.00549459 235.5324829 342.96179196 235.52359676 344.91807938 C235.51928769 346.55383608 235.51928769 346.55383608 235.51489156 348.22263837 C235.38378906 350.64941406 235.38378906 350.64941406 234.38378906 351.64941406 C232.44564487 351.74803424 230.50384591 351.77497081 228.56319427 351.7752552 C226.65397367 351.77916682 226.65397367 351.77916682 224.70618296 351.78315747 C223.27527255 351.78099494 221.84436228 351.77873826 220.41345215 351.77639771 C218.90774927 351.77754854 217.40204667 351.77913581 215.89634466 351.78112495 C211.73895263 351.78532347 207.58158338 351.78322524 203.42419124 351.78013873 C198.94834531 351.77788696 194.47250345 351.78136312 189.99665833 351.78411865 C181.22064401 351.78857775 172.44463822 351.78759927 163.66862357 351.78470601 C156.53955428 351.78245252 149.41048739 351.78213922 142.28141785 351.78322983 C141.26883521 351.78338306 140.25625257 351.78353629 139.21298561 351.78369417 C137.15628787 351.78401388 135.09959013 351.78433809 133.0428924 351.78466676 C113.73298121 351.78752196 94.42307477 351.78423391 75.11316437 351.7788664 C58.52514757 351.77439832 41.93713777 351.77517424 25.34912109 351.77978516 C6.11082484 351.78513021 -13.12746725 351.78724727 -32.36576414 351.78417289 C-34.41512267 351.78385433 -36.46448119 351.78353996 -38.51383972 351.78322983 C-39.52230427 351.78307555 -40.53076882 351.78292128 -41.5697929 351.78276233 C-48.69470771 351.78189696 -55.8196199 351.78336046 -62.9445343 351.78570938 C-71.62109175 351.78850682 -80.29764015 351.78777031 -88.97419655 351.78242864 C-93.40561555 351.77979086 -97.83701943 351.77878784 -102.26843834 351.78207779 C-106.31842031 351.7850392 -110.36837302 351.78345056 -114.41835231 351.77810024 C-115.89006639 351.77697538 -117.3617829 351.77756873 -118.83349544 351.77997603 C-120.82086736 351.78297953 -122.80824613 351.77932694 -124.79561615 351.7752552 C-125.90347772 351.77509285 -127.01133929 351.7749305 -128.15277243 351.77476323 C-130.61621094 351.64941406 -130.61621094 351.64941406 -131.61621094 350.64941406 C-131.724712 348.74600019 -131.76204354 346.83851954 -131.77277851 344.93204594 C-131.78216995 343.68219947 -131.79156138 342.432353 -131.8012374 341.1446324 C-131.80667674 339.73957491 -131.81199831 338.33451695 -131.81721497 336.92945862 C-131.82623389 335.45079189 -131.83566002 333.97212759 -131.84546107 332.49346584 C-131.87111829 328.41048112 -131.89024704 324.32748762 -131.90818512 320.24446261 C-131.9243216 316.74701717 -131.94412588 313.24959614 -131.96387068 309.7521695 C-132.15015918 276.59207762 -132.24412357 243.43139579 -132.32008839 210.27089024 C-132.33015712 205.95215881 -132.34040802 201.63342786 -132.35083008 197.31469727 C-132.3534123 196.24126455 -132.35599453 195.16783184 -132.358655 194.06187087 C-132.40176465 176.67993231 -132.49017198 159.29851597 -132.59618 141.91685963 C-132.70407265 124.07841969 -132.76651169 106.24025095 -132.78594321 88.40149254 C-132.79809884 78.38279234 -132.83086851 68.36505486 -132.91553688 58.34668159 C-132.98764759 49.81212436 -133.01921146 41.27864649 -132.99774066 32.7437898 C-132.98807204 28.38933799 -132.99779495 24.03722569 -133.06013489 19.68315887 C-133.11682955 15.69250999 -133.11760385 11.70580958 -133.07478496 7.71502375 C-133.06903979 6.27538138 -133.08342316 4.8354807 -133.12048791 3.39630408 C-133.27176645 -2.85093341 -133.21761372 -7.4839624 -129.03894365 -12.35469449 C-126.09917286 -14.98691096 -122.91459418 -17.18643263 -119.61621094 -19.35058594 C-118.64620724 -20.03436874 -117.67620354 -20.71815155 -116.67680579 -21.42265505 C-76.89488381 -49.13885076 -32.49189002 -27.15183317 0 0 Z M-106.61621094 -4.35058594 C-107.64740366 -3.75828092 -108.67859638 -3.16597589 -109.74103737 -2.55572224 C-111.94344982 -0.67068397 -112.55921331 0.38000615 -113.16610026 3.2485491 C-113.37663087 6.72096962 -113.38622456 10.14825785 -113.33773804 13.62690735 C-113.34035487 14.97591495 -113.34560908 16.32491957 -113.35327303 17.67390794 C-113.36669402 21.37991497 -113.34268545 25.08488228 -113.31260467 28.79075682 C-113.28670708 32.7872976 -113.29546117 36.78377918 -113.30001831 40.78038025 C-113.30316529 47.70437336 -113.28433171 54.62802738 -113.25059128 61.5519352 C-113.20184024 71.56269791 -113.18620378 81.57329656 -113.17866333 91.58416512 C-113.16552975 107.82581567 -113.12559526 124.06728548 -113.06884766 140.30883789 C-113.01377818 156.08649796 -112.97130536 171.86410894 -112.94580078 187.6418457 C-112.94422444 188.61429264 -112.9426481 189.58673958 -112.94102399 190.58865461 C-112.9331938 195.46710836 -112.92561154 200.34556246 -112.91815257 205.22401679 C-112.85594661 245.69927495 -112.75026277 286.17433417 -112.61621094 326.64941406 C-108.4495445 326.6530716 -104.28287849 326.65527483 -100.11621094 326.65722656 C-98.35664063 326.65879761 -98.35664063 326.65879761 -96.56152344 326.66040039 C-72.83423305 326.6687316 -51.10296783 322.25126209 -28.61621094 314.64941406 C-26.76576172 314.05 -26.76576172 314.05 -24.87792969 313.43847656 C-18.35329587 311.31102587 -11.87265585 309.07185399 -5.42871094 306.71191406 C-4.21828125 306.26976562 -3.00785156 305.82761719 -1.76074219 305.37207031 C3.74787313 303.0824385 9.04807869 300.31726925 14.38378906 297.64941406 C14.38378906 285.76941406 14.38378906 273.88941406 14.38378906 261.64941406 C9.10378906 259.00941406 3.82378906 256.36941406 -1.61621094 253.64941406 C-9.13391807 249.17078003 -15.93036922 244.28245278 -22.61621094 238.64941406 C-23.38964844 238.01132812 -24.16308594 237.37324219 -24.95996094 236.71582031 C-43.60570999 220.84777703 -56.78627856 196.02004273 -59.61621094 171.64941406 C-60.03722429 165.84287037 -60.102373 160.03151751 -60.11621094 154.21191406 C-60.12079315 153.49433929 -60.12537537 152.77676453 -60.13009644 152.03744507 C-60.15483431 142.26710426 -59.08777624 133.14184603 -56.61621094 123.64941406 C-56.41769531 122.87428467 -56.21917969 122.09915527 -56.01464844 121.30053711 C-46.68343877 86.83676227 -23.618932 58.24352761 3.38378906 35.64941406 C2.66191406 34.59753906 1.94003906 33.54566406 1.19628906 32.46191406 C0.79023438 31.87023437 0.38417969 31.27855469 -0.03417969 30.66894531 C-12.99791733 14.12017405 -33.63371049 1.10878455 -52.61621094 -7.35058594 C-53.5559375 -7.78113281 -54.49566406 -8.21167969 -55.46386719 -8.65527344 C-72.69496025 -15.77641899 -90.77234261 -14.23023947 -106.61621094 -4.35058594 Z M135.38378906 3.64941406 C134.47242188 4.2771875 133.56105469 4.90496094 132.62207031 5.55175781 C126.98151334 9.52453504 121.79682822 13.81299899 116.72753906 18.48925781 C114.58557376 20.46343584 112.40504158 22.37573642 110.19628906 24.27441406 C106.41529972 27.56256569 102.87636897 31.05860534 99.38378906 34.64941406 C102.96582298 38.29490921 106.66434077 41.79199805 110.41040039 45.26831055 C138.35667929 71.26905954 161.64105416 105.8910607 163.50805664 145.27050781 C163.86246253 158.06862024 163.6327192 170.20170581 160.38378906 182.64941406 C160.21218262 183.30844727 160.04057617 183.96748047 159.86376953 184.64648438 C154.33092755 205.32418338 143.39488175 224.28756568 126.38378906 237.64941406 C125.66191406 238.41253906 124.94003906 239.17566406 124.19628906 239.96191406 C114.0518652 249.65547464 101.08534042 256.03524873 88.38378906 261.64941406 C88.25566201 273.69335657 88.58825069 285.63110224 89.38378906 297.64941406 C97.60129076 301.94587434 105.62830895 306.07607079 114.54003906 308.76269531 C116.70776925 309.43862217 118.84726665 310.20579062 120.96972656 311.01269531 C148.18604428 321.33248261 174.42042469 326.69851278 203.40332031 326.66113281 C204.65359009 326.66028687 205.90385986 326.65944092 207.1920166 326.65856934 C210.25594253 326.65637402 213.31986489 326.65329908 216.38378906 326.64941406 C216.56683503 285.22116387 216.70783322 243.79296027 216.7923117 202.36438593 C216.80231755 197.4751824 216.81267211 192.58597968 216.82324219 187.69677734 C216.82638991 186.23672751 216.82638991 186.23672751 216.82960123 184.74718173 C216.86442726 168.97925336 216.92751224 153.21155793 217.00101143 137.44376783 C217.0757809 121.26875589 217.12025022 105.09386609 217.13649702 88.91868842 C217.14748304 78.93477166 217.18220011 68.95151327 217.2471208 58.96779914 C217.28935606 52.12481615 217.30220194 45.28217431 217.29180008 38.43907039 C217.28666743 34.48860547 217.29462231 30.53929217 217.33743286 26.58903122 C217.3763422 22.97237818 217.37835118 19.35765165 217.35098022 15.74091025 C217.3459944 13.81260227 217.3805257 11.88431729 217.41643953 9.95633733 C217.4618787 3.80063607 217.4618787 3.80063607 214.64610958 -1.42363048 C212.62023231 -2.97443439 210.65184732 -4.19074491 208.38378906 -5.35058594 C207.37316406 -5.95386719 206.36253906 -6.55714844 205.32128906 -7.17871094 C181.31794106 -18.79735279 156.20580273 -11.15948352 135.38378906 3.64941406 Z " fill="#ED1C24" transform="translate(230.6162109375,122.3505859375)"/>
<path d="M0 0 C2.0272073 -0.00389672 4.05441379 -0.00823337 6.08161926 -0.01298523 C10.316891 -0.02041353 14.55207934 -0.02018158 18.78735352 -0.01489258 C24.16852362 -0.0091127 29.54934788 -0.02600992 34.93046093 -0.04923725 C39.11481159 -0.06409653 43.29908137 -0.06482969 47.48345375 -0.06172752 C49.46503698 -0.06223497 51.44662544 -0.06736196 53.4281826 -0.07753944 C85.74398316 -0.22313693 118.10155544 9.1914296 147.08203125 23.30078125 C148.03795166 23.76339355 148.03795166 23.76339355 149.01318359 24.23535156 C185.10937056 41.75505905 219.85408598 66.95203848 244.94921875 98.61328125 C246.34087014 100.36686395 247.76187037 102.09766227 249.21484375 103.80078125 C269.63210725 127.8038724 288.27397753 159.3046354 296.37890625 189.9296875 C297.11207773 192.52489004 297.11207773 192.52489004 298.46875 195.84375 C300.47631288 201.1294307 301.79435958 206.56721957 303.14453125 212.05078125 C303.40041016 213.05882812 303.65628906 214.066875 303.91992188 215.10546875 C304.29600586 216.61753906 304.29600586 216.61753906 304.6796875 218.16015625 C304.90148682 219.05186523 305.12328613 219.94357422 305.35180664 220.86230469 C305.59278076 221.99700195 305.83375488 223.13169922 306.08203125 224.30078125 C306.34035484 225.44556694 306.34035484 225.44556694 306.60389709 226.61347961 C308.6343593 236.82197995 308.39107165 247.075868 308.3828125 257.4375 C308.38670906 259.48712753 308.39104568 261.53675428 308.39579773 263.58638 C308.4032266 267.8687299 308.40299365 272.15099731 308.39770508 276.43334961 C308.39192499 281.87505237 308.40882266 287.31641315 308.43204975 292.7580595 C308.44690706 296.98873309 308.44764245 301.21932668 308.44454002 305.45002174 C308.44504756 307.45393359 308.45017638 309.4578506 308.46035194 311.46173668 C308.56344085 334.60482204 303.61614332 355.29485806 296.33203125 377.23828125 C296.00721771 378.21683075 296.00721771 378.21683075 295.67584229 379.21514893 C292.49861569 388.72591254 288.93127003 397.72675837 284.06298828 406.49560547 C282.61046664 409.16856341 281.27713395 411.89727846 279.93408203 414.62646484 C269.23471463 436.3619106 255.57280575 456.02723603 239.234375 473.9296875 C237.31347748 476.04581236 235.44213693 478.19387394 233.58203125 480.36328125 C227.28226951 487.5796365 220.37652734 494.10664135 213.08203125 500.30078125 C212.02192176 501.21329351 210.96204429 502.12607535 209.90234375 503.0390625 C208.75425031 504.02253721 207.6058117 505.00560912 206.45703125 505.98828125 C205.91852539 506.45218262 205.38001953 506.91608398 204.82519531 507.39404297 C201.39664825 510.30925276 197.86548426 512.84918262 194.08203125 515.30078125 C191.97492762 516.75486782 189.87083952 518.21333227 187.76953125 519.67578125 C185.54132823 521.21884501 183.31161215 522.75970784 181.08203125 524.30078125 C180.27121094 524.86410156 179.46039063 525.42742188 178.625 526.0078125 C153.67948407 543.04267833 123.84955115 554.20122735 94.70703125 561.55078125 C93.24632202 561.92009766 93.24632202 561.92009766 91.75610352 562.296875 C88.87203206 563.0036763 85.98138588 563.6596641 83.08203125 564.30078125 C82.2656015 564.48305267 81.44917175 564.6653241 80.60800171 564.8531189 C70.68692072 566.77984709 60.77122317 566.62893241 50.70703125 566.63671875 C48.73185128 566.64316353 46.75667223 566.64989307 44.78149414 566.65689087 C40.65297234 566.66881255 36.52453387 566.67257721 32.39599609 566.67138672 C27.16300263 566.67118433 21.93055711 566.69842661 16.69769287 566.73293114 C12.61873024 566.75541832 8.53989467 566.75921759 4.46087646 566.75816727 C2.53479128 566.76049289 0.60870089 566.76913974 -1.31732178 566.784832 C-14.65962846 566.88332981 -26.94023109 565.39098807 -39.91796875 562.30078125 C-41.08666504 562.03168945 -42.25536133 561.76259766 -43.45947266 561.48535156 C-46.12503547 560.86112245 -48.7717327 560.189654 -51.41796875 559.48828125 C-52.84206055 559.11207642 -52.84206055 559.11207642 -54.29492188 558.72827148 C-69.42637806 554.63205642 -83.92543991 549.38356664 -97.91796875 542.30078125 C-98.87993164 541.81770508 -99.84189453 541.33462891 -100.83300781 540.83691406 C-104.13860988 539.17056959 -107.43578393 537.48860156 -110.73046875 535.80078125 C-112.30574341 535.00003174 -112.30574341 535.00003174 -113.9128418 534.18310547 C-120.648891 530.68962894 -126.77951949 526.7482719 -132.91796875 522.30078125 C-134.89175712 521.0009109 -136.86995812 519.70767477 -138.85546875 518.42578125 C-144.88268547 514.41787408 -150.40357011 509.9805682 -155.91796875 505.30078125 C-156.98501502 504.41977044 -158.05275005 503.5395933 -159.12109375 502.66015625 C-172.61327441 491.44949769 -185.14165737 479.15603873 -195.91796875 465.30078125 C-197.41594853 463.50742517 -198.91600048 461.71579823 -200.41796875 459.92578125 C-208.5235248 450.00176132 -215.30444638 439.25266125 -221.91796875 428.30078125 C-222.418125 427.51832031 -222.91828125 426.73585938 -223.43359375 425.9296875 C-237.3167479 403.92259974 -246.40400331 377.8495195 -252.73046875 352.73828125 C-252.92519775 351.96653564 -253.11992676 351.19479004 -253.32055664 350.3996582 C-253.89171684 348.04032144 -254.4081277 345.67411803 -254.91796875 343.30078125 C-255.09246552 342.52986145 -255.26696228 341.75894165 -255.44674683 340.96466064 C-257.49308681 330.62232495 -257.22693165 320.22218746 -257.21875 309.7265625 C-257.22264625 307.63209449 -257.22698281 305.53762725 -257.23173523 303.44316101 C-257.2391652 299.06665479 -257.23893032 294.69022928 -257.23364258 290.3137207 C-257.22786208 284.75095253 -257.24476063 279.18851885 -257.26798725 273.62580585 C-257.28284077 269.30248639 -257.28358046 264.97924524 -257.28047752 260.65590477 C-257.28098524 258.60733568 -257.28611759 256.55876156 -257.29628944 254.51021767 C-257.37909077 235.50043371 -254.48388329 218.47526782 -248.91796875 200.30078125 C-248.64355957 199.39440918 -248.36915039 198.48803711 -248.08642578 197.55419922 C-231.83099407 144.51063183 -198.55129764 93.0146413 -153.91796875 59.30078125 C-152.90992188 58.49898437 -151.901875 57.6971875 -150.86328125 56.87109375 C-143.73642325 51.22050577 -136.34917581 46.1566387 -128.62353516 41.36230469 C-126.98937159 40.3452215 -125.3655119 39.311639 -123.7421875 38.27734375 C-111.95831581 30.85189035 -99.86659622 24.08593989 -86.7421875 19.33984375 C-84.32813562 18.45168635 -82.05026484 17.46709138 -79.73046875 16.36328125 C-68.47715624 11.30538447 -56.47501276 8.05588863 -44.54296875 5.05078125 C-43.569646 4.80473145 -42.59632324 4.55868164 -41.59350586 4.30517578 C-38.70898406 3.59813491 -35.81768296 2.94254833 -32.91796875 2.30078125 C-32.10783829 2.11810196 -31.29770782 1.93542267 -30.46302795 1.74720764 C-20.36642429 -0.22854078 -10.24331315 -0.00825784 0 0 Z M19.52929688 14.26367188 C-19.0595385 14.10029831 -60.02980742 25.45996698 -93.98876953 43.2890625 C-95.90587522 44.29443911 -97.83105161 45.28280953 -99.7578125 46.26953125 C-113.47018904 53.35746062 -125.97263244 61.86136678 -138.31445312 71.10400391 C-139.6907 72.13116014 -141.07683354 73.14504624 -142.46484375 74.15625 C-143.150625 74.65769531 -143.83640625 75.15914062 -144.54296875 75.67578125 C-145.09210938 76.07539062 -145.64125 76.475 -146.20703125 76.88671875 C-148.60407159 78.86783428 -150.7241882 81.09740691 -152.91796875 83.30078125 C-154.44126531 84.71350374 -155.98167498 86.10595775 -157.52294922 87.49902344 C-163.72434418 93.11322784 -169.45172379 98.95915898 -174.91796875 105.30078125 C-175.43302979 105.87860352 -175.94809082 106.45642578 -176.47875977 107.05175781 C-193.09798708 125.76260739 -206.22743789 146.73393076 -216.91796875 169.30078125 C-217.71460938 170.94240234 -217.71460938 170.94240234 -218.52734375 172.6171875 C-248.67255857 235.9376774 -250.06767455 308.62403495 -226.91796875 374.30078125 C-220.01104286 392.72158056 -211.62518492 410.78472851 -200.47265625 427.03125 C-199.31055994 428.72767703 -198.17399507 430.44164465 -197.05078125 432.1640625 C-185.08407262 450.48662999 -169.83256144 469.31723711 -152.91796875 483.30078125 C-152.05945313 484.03554688 -151.2009375 484.7703125 -150.31640625 485.52734375 C-138.19218393 495.82149477 -125.64126633 505.23793255 -111.91796875 513.30078125 C-111.1811084 513.75380615 -110.44424805 514.20683105 -109.68505859 514.67358398 C-79.28208498 533.28502914 -44.9960352 544.072578 -9.91796875 549.30078125 C-8.81066406 549.47883301 -7.70335937 549.65688477 -6.5625 549.84033203 C3.720421 551.38359767 13.82402131 551.70032532 24.20703125 551.67578125 C25.51379318 551.67496552 25.51379318 551.67496552 26.84695435 551.6741333 C86.90963979 551.50293845 142.60793678 530.37336321 190.08203125 494.30078125 C190.87738281 493.70265625 191.67273438 493.10453125 192.4921875 492.48828125 C208.24251482 480.48803186 223.09415793 466.06744072 235.08203125 450.30078125 C236.00847424 449.12579691 236.93560549 447.95135504 237.86328125 446.77734375 C245.8824135 436.49915371 252.65843312 425.63385996 259.08203125 414.30078125 C259.5011377 413.56182617 259.92024414 412.82287109 260.35205078 412.06152344 C295.23160877 349.89292434 302.30915052 276.62367211 283.26953125 208.30078125 C278.26818557 191.29118786 271.41988935 174.92983015 263.08203125 159.30078125 C262.55867188 158.29917969 262.0353125 157.29757813 261.49609375 156.265625 C258.01902674 149.72542752 254.13954891 143.494286 250.08203125 137.30078125 C249.44136719 136.30820313 248.80070312 135.315625 248.140625 134.29296875 C236.212855 116.03951251 220.95006992 97.21318129 204.08203125 83.30078125 C202.60283203 82.05941406 202.60283203 82.05941406 201.09375 80.79296875 C161.72117314 47.78224097 115.47586706 25.52806618 64.54980469 17.68701172 C62.50675492 17.36725462 60.46923126 17.01241123 58.43359375 16.6484375 C45.60898047 14.47933624 32.50407519 14.45228763 19.52929688 14.26367188 Z " fill="#ED1C24" transform="translate(256.91796875,-0.30078125)"/>
<path d="M0 0 C7.85345455 4.79366706 11.93509905 10.49279716 14.8046875 19.1015625 C15.63787175 28.84025715 14.84304894 37.19004183 8.4921875 44.9140625 C-1.14093585 52.75497685 -8.85467887 54.14489611 -21.1953125 53.1015625 C-28.44273942 51.55557605 -33.15663898 47.17003566 -37.1953125 41.1015625 C-41.3263191 33.62175173 -42.62421682 26.51098601 -40.4296875 18.203125 C-37.65984847 10.00352216 -33.80389711 4.38703011 -26.1953125 0.1015625 C-18.29205946 -3.07739962 -7.89189846 -3.62417655 0 0 Z " fill="#ED1C24" transform="translate(295.1953125,215.8984375)"/>
</svg>
